<mxfile host="Electron" agent="Mozilla/5.0 (X11; Linux x86_64) AppleWebKit/537.36 (KHTML, like Gecko) draw.io/28.0.6 Chrome/138.0.7204.100 Electron/37.2.3 Safari/537.36" version="28.0.6">
  <diagram name="Page-1" id="Os7JeODWuEgO7NTywMPS">
    <mxGraphModel dx="1360" dy="843" grid="1" gridSize="10" guides="1" tooltips="1" connect="1" arrows="1" fold="1" page="1" pageScale="1" pageWidth="850" pageHeight="1100" math="0" shadow="0">
      <root>
        <mxCell id="0" />
        <mxCell id="1" parent="0" />
        <mxCell id="KuT0zEfDjnZi_ZdxeDcT-4" value="" style="rounded=0;whiteSpace=wrap;html=1;fontSize=18;fillColor=#99CCFF;strokeWidth=2;shadow=0;" parent="1" vertex="1">
          <mxGeometry x="480" y="320" width="80" height="40" as="geometry" />
        </mxCell>
        <mxCell id="KuT0zEfDjnZi_ZdxeDcT-5" value="" style="rounded=0;whiteSpace=wrap;html=1;fontSize=18;fillColor=#d5e8d4;strokeColor=#000000;strokeWidth=2;shadow=0;" parent="1" vertex="1">
          <mxGeometry x="480" y="360" width="80" height="40" as="geometry" />
        </mxCell>
        <mxCell id="KuT0zEfDjnZi_ZdxeDcT-6" value="" style="rounded=0;whiteSpace=wrap;html=1;fontSize=18;fillColor=#f8cecc;strokeColor=#000000;strokeWidth=2;shadow=0;" parent="1" vertex="1">
          <mxGeometry x="480" y="400" width="80" height="40" as="geometry" />
        </mxCell>
        <mxCell id="KuT0zEfDjnZi_ZdxeDcT-8" value="" style="endArrow=classic;startArrow=classic;html=1;rounded=0;exitX=0.5;exitY=0;exitDx=0;exitDy=0;fontSize=13;strokeWidth=4;entryX=0.5;entryY=1;entryDx=0;entryDy=0;shadow=0;" parent="1" source="o3bp0uEpjWJnOmEBgbhN-13" edge="1" target="o3bp0uEpjWJnOmEBgbhN-34">
          <mxGeometry width="50" height="50" relative="1" as="geometry">
            <mxPoint x="525" y="455" as="sourcePoint" />
            <mxPoint x="620" y="300" as="targetPoint" />
          </mxGeometry>
        </mxCell>
        <mxCell id="KuT0zEfDjnZi_ZdxeDcT-9" value="" style="endArrow=classic;startArrow=classic;html=1;rounded=0;fontSize=13;strokeWidth=4;entryX=1;entryY=0.5;entryDx=0;entryDy=0;shadow=0;" parent="1" edge="1" target="o3bp0uEpjWJnOmEBgbhN-13">
          <mxGeometry width="50" height="50" relative="1" as="geometry">
            <mxPoint x="720" y="460" as="sourcePoint" />
            <mxPoint x="660" y="460" as="targetPoint" />
            <Array as="points">
              <mxPoint x="660" y="460" />
            </Array>
          </mxGeometry>
        </mxCell>
        <mxCell id="KuT0zEfDjnZi_ZdxeDcT-10" value="" style="endArrow=classic;startArrow=classic;html=1;rounded=0;exitX=0.878;exitY=1.003;exitDx=0;exitDy=0;exitPerimeter=0;fontSize=13;strokeWidth=4;shadow=0;" parent="1" edge="1">
          <mxGeometry width="50" height="50" relative="1" as="geometry">
            <mxPoint x="620.48" y="480.48" as="sourcePoint" />
            <mxPoint x="620" y="560" as="targetPoint" />
          </mxGeometry>
        </mxCell>
        <mxCell id="o3bp0uEpjWJnOmEBgbhN-1" value="" style="rounded=0;whiteSpace=wrap;html=1;fontSize=18;fillColor=#dae8fc;strokeColor=#000000;strokeWidth=2;shadow=0;" vertex="1" parent="1">
          <mxGeometry x="560" y="320" width="40" height="120" as="geometry" />
        </mxCell>
        <mxCell id="o3bp0uEpjWJnOmEBgbhN-13" value="" style="rounded=0;whiteSpace=wrap;html=1;fillColor=#fff2cc;strokeColor=#000000;strokeWidth=2;fontSize=18;shadow=0;" vertex="1" parent="1">
          <mxGeometry x="600" y="440" width="40" height="40" as="geometry" />
        </mxCell>
        <mxCell id="o3bp0uEpjWJnOmEBgbhN-17" value="" style="rounded=0;whiteSpace=wrap;html=1;fontSize=18;fillColor=#99CCFF;strokeWidth=2;" vertex="1" parent="1">
          <mxGeometry x="320" y="320" width="80" height="40" as="geometry" />
        </mxCell>
        <mxCell id="o3bp0uEpjWJnOmEBgbhN-18" value="" style="rounded=0;whiteSpace=wrap;html=1;fontSize=18;fillColor=#d5e8d4;strokeColor=#000000;strokeWidth=2;" vertex="1" parent="1">
          <mxGeometry x="320" y="360" width="80" height="40" as="geometry" />
        </mxCell>
        <mxCell id="o3bp0uEpjWJnOmEBgbhN-19" value="" style="rounded=0;whiteSpace=wrap;html=1;fontSize=18;fillColor=#f8cecc;strokeColor=#000000;strokeWidth=2;" vertex="1" parent="1">
          <mxGeometry x="320" y="400" width="80" height="40" as="geometry" />
        </mxCell>
        <mxCell id="o3bp0uEpjWJnOmEBgbhN-21" value="" style="endArrow=classic;startArrow=classic;html=1;rounded=0;exitX=0.5;exitY=0;exitDx=0;exitDy=0;fontSize=13;strokeWidth=4;entryX=0.5;entryY=1;entryDx=0;entryDy=0;" edge="1" parent="1" source="o3bp0uEpjWJnOmEBgbhN-26" target="o3bp0uEpjWJnOmEBgbhN-41">
          <mxGeometry width="50" height="50" relative="1" as="geometry">
            <mxPoint x="300" y="440" as="sourcePoint" />
            <mxPoint x="260" y="280" as="targetPoint" />
          </mxGeometry>
        </mxCell>
        <mxCell id="o3bp0uEpjWJnOmEBgbhN-22" value="" style="endArrow=classic;startArrow=classic;html=1;rounded=0;fontSize=13;strokeWidth=4;entryX=1;entryY=0.5;entryDx=0;entryDy=0;exitX=0;exitY=0.5;exitDx=0;exitDy=0;" edge="1" parent="1" target="o3bp0uEpjWJnOmEBgbhN-26" source="o3bp0uEpjWJnOmEBgbhN-13">
          <mxGeometry width="50" height="50" relative="1" as="geometry">
            <mxPoint x="430" y="460" as="sourcePoint" />
            <mxPoint x="410" y="460" as="targetPoint" />
          </mxGeometry>
        </mxCell>
        <mxCell id="o3bp0uEpjWJnOmEBgbhN-23" value="" style="endArrow=classic;startArrow=classic;html=1;rounded=0;exitX=0.878;exitY=1.003;exitDx=0;exitDy=0;exitPerimeter=0;fontSize=13;strokeWidth=4;" edge="1" parent="1">
          <mxGeometry width="50" height="50" relative="1" as="geometry">
            <mxPoint x="259.98" y="480" as="sourcePoint" />
            <mxPoint x="260" y="560" as="targetPoint" />
          </mxGeometry>
        </mxCell>
        <mxCell id="o3bp0uEpjWJnOmEBgbhN-24" value="" style="rounded=0;whiteSpace=wrap;html=1;fontSize=18;fillColor=#dae8fc;strokeColor=#000000;strokeWidth=2;" vertex="1" parent="1">
          <mxGeometry x="280" y="320" width="40" height="120" as="geometry" />
        </mxCell>
        <mxCell id="o3bp0uEpjWJnOmEBgbhN-25" value="" style="endArrow=classic;startArrow=classic;html=1;rounded=0;fontSize=13;strokeWidth=4;exitX=0;exitY=0.5;exitDx=0;exitDy=0;" edge="1" parent="1" source="o3bp0uEpjWJnOmEBgbhN-26">
          <mxGeometry width="50" height="50" relative="1" as="geometry">
            <mxPoint x="210" y="460" as="sourcePoint" />
            <mxPoint x="160" y="460" as="targetPoint" />
          </mxGeometry>
        </mxCell>
        <mxCell id="o3bp0uEpjWJnOmEBgbhN-26" value="" style="rounded=0;whiteSpace=wrap;html=1;fillColor=#fff2cc;strokeColor=#000000;strokeWidth=2;fontSize=18;" vertex="1" parent="1">
          <mxGeometry x="240" y="440" width="40" height="40" as="geometry" />
        </mxCell>
        <mxCell id="o3bp0uEpjWJnOmEBgbhN-27" value="Instruction&lt;br&gt;Memory" style="rounded=0;whiteSpace=wrap;html=1;fontSize=16;fillColor=#dae8fc;strokeColor=#000000;strokeWidth=2;" vertex="1" parent="1">
          <mxGeometry x="400" y="320" width="80" height="120" as="geometry" />
        </mxCell>
        <mxCell id="o3bp0uEpjWJnOmEBgbhN-29" value="" style="rounded=0;whiteSpace=wrap;html=1;fontSize=18;fillColor=#99CCFF;strokeWidth=2;shadow=0;" vertex="1" parent="1">
          <mxGeometry x="480" y="280" width="80" height="40" as="geometry" />
        </mxCell>
        <mxCell id="o3bp0uEpjWJnOmEBgbhN-30" value="" style="rounded=0;whiteSpace=wrap;html=1;fontSize=18;fillColor=#d5e8d4;strokeColor=#000000;strokeWidth=2;shadow=0;" vertex="1" parent="1">
          <mxGeometry x="480" y="240" width="80" height="40" as="geometry" />
        </mxCell>
        <mxCell id="o3bp0uEpjWJnOmEBgbhN-31" value="" style="rounded=0;whiteSpace=wrap;html=1;fontSize=18;fillColor=#f8cecc;strokeColor=#000000;strokeWidth=2;shadow=0;" vertex="1" parent="1">
          <mxGeometry x="480" y="200" width="80" height="40" as="geometry" />
        </mxCell>
        <mxCell id="o3bp0uEpjWJnOmEBgbhN-32" value="" style="endArrow=classic;startArrow=classic;html=1;rounded=0;fontSize=13;strokeWidth=4;" edge="1" parent="1">
          <mxGeometry width="50" height="50" relative="1" as="geometry">
            <mxPoint x="259.5" y="160" as="sourcePoint" />
            <mxPoint x="259.5" y="80" as="targetPoint" />
          </mxGeometry>
        </mxCell>
        <mxCell id="o3bp0uEpjWJnOmEBgbhN-33" value="" style="rounded=0;whiteSpace=wrap;html=1;fontSize=18;fillColor=#dae8fc;strokeColor=#000000;strokeWidth=2;shadow=0;" vertex="1" parent="1">
          <mxGeometry x="560" y="200" width="40" height="120" as="geometry" />
        </mxCell>
        <mxCell id="o3bp0uEpjWJnOmEBgbhN-34" value="" style="rounded=0;whiteSpace=wrap;html=1;fillColor=#fff2cc;strokeColor=#000000;strokeWidth=2;fontSize=18;shadow=0;" vertex="1" parent="1">
          <mxGeometry x="600" y="160" width="40" height="40" as="geometry" />
        </mxCell>
        <mxCell id="o3bp0uEpjWJnOmEBgbhN-35" value="" style="endArrow=classic;startArrow=classic;html=1;rounded=0;fontSize=13;strokeWidth=4;entryX=1;entryY=0.5;entryDx=0;entryDy=0;shadow=0;" edge="1" parent="1">
          <mxGeometry width="50" height="50" relative="1" as="geometry">
            <mxPoint x="720" y="179.5" as="sourcePoint" />
            <mxPoint x="640" y="179.5" as="targetPoint" />
            <Array as="points">
              <mxPoint x="660" y="179.5" />
            </Array>
          </mxGeometry>
        </mxCell>
        <mxCell id="o3bp0uEpjWJnOmEBgbhN-36" value="Loop&lt;br&gt;Unroll" style="rounded=0;whiteSpace=wrap;html=1;fontSize=16;fillColor=#CCFFCC;strokeColor=#000000;strokeWidth=2;" vertex="1" parent="1">
          <mxGeometry x="400" y="260" width="80" height="60" as="geometry" />
        </mxCell>
        <mxCell id="o3bp0uEpjWJnOmEBgbhN-37" value="Initial&lt;div&gt;Reorder&lt;/div&gt;" style="rounded=0;whiteSpace=wrap;html=1;fontSize=18;fillColor=#d5e8d4;strokeColor=#000000;strokeWidth=2;" vertex="1" parent="1">
          <mxGeometry x="400" y="200" width="80" height="60" as="geometry" />
        </mxCell>
        <mxCell id="o3bp0uEpjWJnOmEBgbhN-38" value="" style="rounded=0;whiteSpace=wrap;html=1;fontSize=18;fillColor=#f8cecc;strokeColor=#000000;strokeWidth=2;" vertex="1" parent="1">
          <mxGeometry x="320" y="200" width="80" height="40" as="geometry" />
        </mxCell>
        <mxCell id="o3bp0uEpjWJnOmEBgbhN-39" value="" style="rounded=0;whiteSpace=wrap;html=1;fontSize=18;fillColor=#d5e8d4;strokeColor=#000000;strokeWidth=2;" vertex="1" parent="1">
          <mxGeometry x="320" y="240" width="80" height="40" as="geometry" />
        </mxCell>
        <mxCell id="o3bp0uEpjWJnOmEBgbhN-40" value="" style="rounded=0;whiteSpace=wrap;html=1;fontSize=18;fillColor=#99CCFF;strokeWidth=2;" vertex="1" parent="1">
          <mxGeometry x="320" y="280" width="80" height="40" as="geometry" />
        </mxCell>
        <mxCell id="o3bp0uEpjWJnOmEBgbhN-41" value="" style="rounded=0;whiteSpace=wrap;html=1;fillColor=#fff2cc;strokeColor=#000000;strokeWidth=2;fontSize=18;" vertex="1" parent="1">
          <mxGeometry x="240" y="160" width="40" height="40" as="geometry" />
        </mxCell>
        <mxCell id="o3bp0uEpjWJnOmEBgbhN-42" value="" style="endArrow=classic;startArrow=classic;html=1;rounded=0;fontSize=13;strokeWidth=4;entryX=1;entryY=0.5;entryDx=0;entryDy=0;exitX=0;exitY=0.5;exitDx=0;exitDy=0;" edge="1" parent="1">
          <mxGeometry width="50" height="50" relative="1" as="geometry">
            <mxPoint x="600" y="179.5" as="sourcePoint" />
            <mxPoint x="280" y="179.5" as="targetPoint" />
          </mxGeometry>
        </mxCell>
        <mxCell id="o3bp0uEpjWJnOmEBgbhN-44" value="" style="endArrow=classic;startArrow=classic;html=1;rounded=0;fontSize=13;strokeWidth=4;shadow=0;" edge="1" parent="1">
          <mxGeometry width="50" height="50" relative="1" as="geometry">
            <mxPoint x="619.5" y="160" as="sourcePoint" />
            <mxPoint x="619.5" y="80" as="targetPoint" />
          </mxGeometry>
        </mxCell>
        <mxCell id="o3bp0uEpjWJnOmEBgbhN-46" value="" style="endArrow=classic;startArrow=classic;html=1;rounded=0;fontSize=13;strokeWidth=4;entryX=1;entryY=0.5;entryDx=0;entryDy=0;" edge="1" parent="1">
          <mxGeometry width="50" height="50" relative="1" as="geometry">
            <mxPoint x="240" y="179.5" as="sourcePoint" />
            <mxPoint x="160" y="179.5" as="targetPoint" />
            <Array as="points">
              <mxPoint x="180" y="179.5" />
            </Array>
          </mxGeometry>
        </mxCell>
        <mxCell id="o3bp0uEpjWJnOmEBgbhN-47" value="" style="rounded=0;whiteSpace=wrap;html=1;fontSize=18;fillColor=#dae8fc;strokeColor=#000000;strokeWidth=2;" vertex="1" parent="1">
          <mxGeometry x="280" y="200" width="40" height="120" as="geometry" />
        </mxCell>
        <mxCell id="o3bp0uEpjWJnOmEBgbhN-48" value="Amlet" style="rounded=0;whiteSpace=wrap;html=1;fillColor=#A4A4A4;strokeWidth=2;opacity=90;fontSize=20;" vertex="1" parent="1">
          <mxGeometry x="240" y="160" width="160" height="160" as="geometry" />
        </mxCell>
        <mxCell id="o3bp0uEpjWJnOmEBgbhN-49" value="Amlet" style="rounded=0;whiteSpace=wrap;html=1;fillColor=#A4A4A4;strokeWidth=2;opacity=90;fontSize=20;" vertex="1" parent="1">
          <mxGeometry x="480" y="160" width="160" height="160" as="geometry" />
        </mxCell>
        <mxCell id="o3bp0uEpjWJnOmEBgbhN-50" value="Amlet" style="rounded=0;whiteSpace=wrap;html=1;fillColor=#A4A4A4;strokeWidth=2;opacity=90;fontSize=20;" vertex="1" parent="1">
          <mxGeometry x="240" y="320" width="160" height="160" as="geometry" />
        </mxCell>
        <mxCell id="o3bp0uEpjWJnOmEBgbhN-51" value="Amlet" style="rounded=0;whiteSpace=wrap;html=1;fillColor=#A4A4A4;strokeWidth=2;opacity=90;fontSize=20;" vertex="1" parent="1">
          <mxGeometry x="480" y="320" width="160" height="160" as="geometry" />
        </mxCell>
      </root>
    </mxGraphModel>
  </diagram>
</mxfile>
